<?xml version="1.0" encoding="utf-8"?>
<!-- Generator: Adobe Illustrator 21.1.0, SVG Export Plug-In . SVG Version: 6.00 Build 0)  -->
<svg version="1.1" id="Layer_1" xmlns="http://www.w3.org/2000/svg" xmlns:xlink="http://www.w3.org/1999/xlink" x="0px" y="0px"
	 viewBox="0 0 960 580" style="enable-background:new 0 0 960 580;" xml:space="preserve">
<style type="text/css">
	.st0{fill:#AA3A5F;}
	.st1{fill:#FFFFFF;}
	.st2{font-family:'.SFNSText';}
	.st3{font-size:40px;}
</style>
<rect y="0" class="st0" width="960" height="580"/>
<text transform="matrix(1 0 0 1 39 440.6665)" class="st1 st2 st3">Link or display of media or resource goes here.</text>
<g>
	<g>
		<g>
			<g>
				<circle class="st1" cx="300.6" cy="193.5" r="4.4"/>
				<circle class="st1" cx="307.7" cy="186.4" r="4.4"/>
				<polygon class="st1" points="252,185 245,185 245,191 239,191 239,197.5 245,197.5 245,203.5 252,203.5 252,197.5 258,197.5 
					258,191 252,191 				"/>
				<path class="st1" d="M279.5,126.1c-41.4,0-75,33.6-75,75s33.6,75,75,75s75-33.6,75-75S320.9,126.1,279.5,126.1z M318,234h-6.4
					l-14.4-23h-15.9h-3.7h-15.9l-14.4,23H241c-5.2,0-9.5-4.2-9.5-9.5l2.1-33.2c0-0.1,0-0.2,0-0.3c0-0.1,0-0.2,0-0.3
					c0-11.2,9.1-20.3,20.3-20.3c4.6,0,7.9,1.6,11.3,4.2c4.4-1.3,6.5-2.4,12.5-2.7h3.7c5.9,0.3,8.1,1.4,12.5,2.7
					c3.4-2.6,6.6-4.2,11.3-4.2c11.2,0,20.3,9.1,20.3,20.3c0,0.1,0,0.2,0,0.3c0,0.1,0,0.2,0,0.3l2.1,33.2
					C327.5,229.8,323.2,234,318,234z"/>
				<circle class="st1" cx="314.8" cy="193.5" r="4.4"/>
				<circle class="st1" cx="307.7" cy="200.6" r="4.4"/>
			</g>
		</g>
	</g>
	<g>
	</g>
	<g>
	</g>
	<g>
	</g>
	<g>
	</g>
	<g>
	</g>
	<g>
	</g>
	<g>
	</g>
	<g>
	</g>
	<g>
	</g>
	<g>
	</g>
	<g>
	</g>
	<g>
	</g>
	<g>
	</g>
	<g>
	</g>
	<g>
	</g>
</g>
<g>
	<g>
		<path class="st1" d="M676,194.4h-15.4c-1.9,0-3.4-1.5-3.4-3.4v-15.1c0-0.9-0.8-1.7-1.7-1.7h-23.8c-0.9,0-1.7,0.8-1.7,1.7v57.8
			c0,0.9,0.8,1.7,1.7,1.7H676c0.9,0,1.7-0.8,1.7-1.7v-37.6C677.7,195.2,676.9,194.4,676,194.4z"/>
		<path class="st1" d="M653.9,129.8c-41.6,0-75,33.4-75,75s33.4,75,75,75c41.6,0,75-33.4,75-75S695.5,129.8,653.9,129.8z
			 M688.1,249.2h-68.2c-1.9,0-3.4-1.5-3.4-3.4v-82c0-1.9,1.5-3.4,3.4-3.4h43c1,0,1.7,0.3,2.4,1l25.2,25.3c0.7,0.7,1,1.4,1,2.4v56.7
			C691.5,247.7,689.9,249.2,688.1,249.2z"/>
	</g>
</g>
<g>
	<path class="st1" d="M100.4,129.4c-41.4,0-75,33.6-75,75s33.6,75,75,75s75-33.6,75-75S141.8,129.4,100.4,129.4z M126.5,208.4
		L89,231.8c-0.8,0.5-1.6,0.7-2.5,0.7c-0.8,0-1.6-0.2-2.3-0.6c-1.5-0.8-2.4-2.4-2.4-4.1V181c0-1.7,0.9-3.3,2.4-4.1
		c1.5-0.8,3.3-0.8,4.8,0.1l37.5,23.4c1.4,0.9,2.2,2.4,2.2,4S127.8,207.5,126.5,208.4z"/>
	<g>
	</g>
	<g>
	</g>
	<g>
	</g>
	<g>
	</g>
	<g>
	</g>
	<g>
	</g>
	<g>
	</g>
	<g>
	</g>
	<g>
	</g>
	<g>
	</g>
	<g>
	</g>
	<g>
	</g>
	<g>
	</g>
	<g>
	</g>
	<g>
	</g>
</g>
<g>
	<g>
		<g>
			<path class="st1" d="M458.2,130.2c-41.4,0-75,33.6-75,75s33.6,75,75,75s75-33.6,75-75S499.6,130.2,458.2,130.2z M457.8,232.3
				L457.8,232.3L457.8,232.3c0,1.7-1,3.2-2.5,4c-0.6,0.3-1.3,0.4-2,0.4c-1,0-2-0.3-2.8-0.9l-14.7-11.4c-0.7,0.2-1.4,0.3-2.1,0.3H419
				c-4.8,0-8.7-3.9-8.7-8.7v-25.3c0-4.8,3.9-8.7,8.7-8.7h14.7c0.9,0,1.7,0.1,2.5,0.4l14.3-11.2c1.6-1.3,4-1.3,5.7,0.1
				c1,0.9,1.6,2.2,1.6,3.5L457.8,232.3z M472.5,213.9l-4.9-4.9c1.1-1.5,1.8-3.4,1.8-5.5c0-2.3-0.8-4.3-2.2-6l4.9-4.9
				c2.6,2.9,4.2,6.7,4.2,10.8C476.3,207.5,474.8,211.1,472.5,213.9z M478.8,220.2c4-4.5,6.4-10.3,6.4-16.7c0-6.6-2.6-12.7-6.8-17.2
				l4.9-4.9c5.5,5.7,8.8,13.5,8.8,22c0,8.3-3.2,15.9-8.4,21.6L478.8,220.2z M495.4,236.6l-4.9-4.9c6.9-7.4,11.1-17.4,11.1-28.3
				c0-11.1-4.4-21.2-11.5-28.7l4.9-4.9c8.4,8.7,13.5,20.5,13.5,33.6C508.5,216.3,503.5,228,495.4,236.6z"/>
		</g>
	</g>
	<g>
	</g>
	<g>
	</g>
	<g>
	</g>
	<g>
	</g>
	<g>
	</g>
	<g>
	</g>
	<g>
	</g>
	<g>
	</g>
	<g>
	</g>
	<g>
	</g>
	<g>
	</g>
	<g>
	</g>
	<g>
	</g>
	<g>
	</g>
	<g>
	</g>
</g>
<g>
	<g>
		<path class="st1" d="M864.6,225.7c-2.4-1-4.8-2.4-7.2-3.4c-6.5-3.4-13.6-6.8-17.4-6.8c-6.5,0-14.3,3.8-19.8,6.8
			c-0.7,0.3-0.7,1-0.7,1.4v3.8c0,0.9,0.8,1.7,1.7,1.7h42.6C865.6,228.8,866.3,226.4,864.6,225.7z"/>
		<path class="st1" d="M879.1,181.1H821c-0.9,0-1.7,0.8-1.7,1.7v21.5c0,1.4,1.4,2,2.4,1.7c5.5-2.4,12-4.4,18.1-4.4
			c7.2,0,15.4,4.1,23.9,8.5c5.1,2.7,10.2,5.1,15,6.8c1,0.3,2.4-0.3,2.4-1.7v-32.4C880.8,181.7,880.1,181.1,879.1,181.1z
			 M867.2,201.4c-3.8,0-6.8-3.1-6.8-6.8s3.1-6.8,6.8-6.8s6.8,3.1,6.8,6.8S871,201.4,867.2,201.4z"/>
		<path class="st1" d="M850.2,129.8c-41.6,0-75,33.4-75,75s33.4,75,75,75c41.6,0,75-33.4,75-75S891.8,129.8,850.2,129.8z
			 M891.2,242.3h-82c-1.9,0-3.4-1.5-3.4-3.4v-68.2c0-1.9,1.5-3.4,3.4-3.4h82c1.9,0,3.4,1.5,3.4,3.4v68.2
			C894.6,240.8,893.1,242.3,891.2,242.3z"/>
	</g>
</g>
</svg>
